HIERARCHY
ROOT joint_Root
{
	OFFSET 0.0 0.0 0.0
	CHANNELS 6 Xposition Yposition Zposition Zrotation Xrotation Yrotation 
	JOINT Hips
	{
		OFFSET 4.5925 91.4895 -427.239
		CHANNELS 6 Xposition Yposition Zposition Zrotation Xrotation Yrotation 
		JOINT Spine
		{
			OFFSET 15.7357 0.0 0.0
			CHANNELS 6 Xposition Yposition Zposition Zrotation Xrotation Yrotation 
			JOINT Chest
			{
				OFFSET 8.98455 -0.406207 0.0
				CHANNELS 6 Xposition Yposition Zposition Zrotation Xrotation Yrotation 
				JOINT Neck
				{
					OFFSET 16.3773 0.0 0.0
					CHANNELS 6 Xposition Yposition Zposition Zrotation Xrotation Yrotation 
					JOINT Head
					{
						OFFSET 6.45672 0.0 0.0
						CHANNELS 6 Xposition Yposition Zposition Zrotation Xrotation Yrotation 
						End Site
						{
							OFFSET 0.0 0.0 0.0
						}
					}
				}
				JOINT Shoulder_L
				{
					OFFSET 12.9942 -0.242716 4.98039
					CHANNELS 6 Xposition Yposition Zposition Zrotation Xrotation Yrotation 
					JOINT UpperArm_L
					{
						OFFSET 5.34809 0.0 0.0
						CHANNELS 6 Xposition Yposition Zposition Zrotation Xrotation Yrotation 
						JOINT LowerArm_L
						{
							OFFSET 24.3286 1.87007e-05 0.0
							CHANNELS 6 Xposition Yposition Zposition Zrotation Xrotation Yrotation 
							JOINT Hand_L
							{
								OFFSET 22.2916 0.0 0.0
								CHANNELS 6 Xposition Yposition Zposition Zrotation Xrotation Yrotation 
								End Site
								{
									OFFSET 0.0 0.0 0.0
								}
							}
						}
					}
				}
				JOINT Shoulder_R
				{
					OFFSET 12.9945 -0.242716 -4.98039
					CHANNELS 6 Xposition Yposition Zposition Zrotation Xrotation Yrotation 
					JOINT UpperArm_R
					{
						OFFSET -5.34813 0.0 0.0
						CHANNELS 6 Xposition Yposition Zposition Zrotation Xrotation Yrotation 
						JOINT LowerArm_R
						{
							OFFSET -24.3289 0.000322201 0.0
							CHANNELS 6 Xposition Yposition Zposition Zrotation Xrotation Yrotation 
							JOINT Hand_R
							{
								OFFSET -22.2915 -0.000108084 0.0
								CHANNELS 6 Xposition Yposition Zposition Zrotation Xrotation Yrotation 
								End Site
								{
									OFFSET 0.0 0.0 0.0
								}
							}
						}
					}
				}
			}
		}
		JOINT UpperLeg_L
		{
			OFFSET -2.19248 -6.46944 0.0
			CHANNELS 6 Xposition Yposition Zposition Zrotation Xrotation Yrotation 
			JOINT LowerLeg_L
			{
				OFFSET 39.0811 0.0 -1.23785e-05
				CHANNELS 6 Xposition Yposition Zposition Zrotation Xrotation Yrotation 
				JOINT Foot_L
				{
					OFFSET 40.9854 0.0 -1.26872e-05
					CHANNELS 6 Xposition Yposition Zposition Zrotation Xrotation Yrotation 
					JOINT Toes_L
					{
						OFFSET 11.7543 0.0 0.0
						CHANNELS 6 Xposition Yposition Zposition Zrotation Xrotation Yrotation 
						End Site
						{
							OFFSET 0.0 0.0 0.0
						}
					}
				}
			}
		}
		JOINT UpperLeg_R
		{
			OFFSET -2.19251 6.46944 0.0
			CHANNELS 6 Xposition Yposition Zposition Zrotation Xrotation Yrotation 
			JOINT LowerLeg_R
			{
				OFFSET -39.0811 -0.00228153 -0.0401928
				CHANNELS 6 Xposition Yposition Zposition Zrotation Xrotation Yrotation 
				JOINT Foot_R
				{
					OFFSET -40.9854 0.0 0.0
					CHANNELS 6 Xposition Yposition Zposition Zrotation Xrotation Yrotation 
					JOINT Toes_R
					{
						OFFSET -11.7543 0.0 0.0
						CHANNELS 6 Xposition Yposition Zposition Zrotation Xrotation Yrotation 
						End Site
						{
							OFFSET 0.0 0.0 0.0
						}
					}
				}
			}
		}
	}
}
MOTION
Frames:	6
Frame Time:	0.0333333
0.000000 0.000000 0.000000 0.000000 0.000000 -0.000000 0.212994 90.697100 3.545400 88.846400 -6.272080 9.619970 15.735700 0.000005 -0.000001 87.677100 82.961700 -87.977800 8.984550 -0.406207 -0.000000 6.297890 -0.565037 -0.569530 16.377300 -0.000001 -0.000001 3.974920 -3.690180 2.148670 6.456720 -0.000001 -0.000000 -11.022700 -0.777751 -4.001370 12.994200 -0.242716 4.980390 -91.946400 7.148330 -74.725100 5.348090 -0.000007 -0.000001 -60.818500 43.958700 -16.022500 24.328600 0.000019 0.000005 8.628500 21.241100 -22.726100 22.291600 -0.000001 0.000005 10.347200 5.271910 0.846655 12.994500 -0.242716 -4.980390 88.360500 11.365900 -81.736300 -5.348130 -0.000001 -0.000004 -62.625100 32.924100 -11.292800 -24.328900 0.000322 -0.000009 0.464143 1.460230 -17.672000 -22.291500 -0.000108 -0.000004 12.856900 5.369360 -1.966910 -2.192480 -6.469440 -0.000000 -174.573000 -11.856500 3.358860 39.081100 -0.000007 -0.000012 -0.138618 0.246993 29.302400 40.985400 -0.000006 -0.000013 0.045778 3.207860 -72.733900 11.754300 -0.000000 0.000003 -0.000095 -0.000981 -16.615200 -2.192510 6.469440 -0.000001 174.053000 15.563400 -176.094000 -39.081100 -0.002282 -0.040193 -0.163625 0.313913 28.003100 -40.985400 0.000008 0.000006 2.044450 13.275300 -71.854300 -11.754300 -0.000006 -0.000006 -0.003853 -0.049907 -18.603100
0.000000 0.000000 0.000000 0.000000 0.000000 -0.000000 0.182620 90.696600 3.514980 88.854300 -6.190530 9.696130 15.735700 0.000005 -0.000001 87.961700 82.936200 -88.322400 8.984550 -0.406207 -0.000000 6.351280 -0.496567 -0.693087 16.377300 -0.000001 -0.000001 4.038270 -3.695270 2.122830 6.456720 -0.000001 -0.000000 -10.926000 -0.811113 -4.153110 12.994200 -0.242716 4.980390 -91.940200 7.092000 -74.657000 5.348090 -0.000007 -0.000001 -60.475500 43.643600 -16.178900 24.328600 0.000019 0.000005 8.528350 21.262100 -22.466000 22.291600 -0.000001 0.000005 10.387500 5.266750 0.986165 12.994500 -0.242716 -4.980390 88.324700 11.382100 -81.569800 -5.348130 -0.000001 -0.000004 -62.182000 30.985200 -11.461300 -24.328900 0.000322 -0.000009 0.502511 1.621650 -17.253500 -22.291500 -0.000108 -0.000004 12.497400 5.370820 -2.011140 -2.192480 -6.469440 -0.000000 -174.555000 -11.763400 3.393870 39.081100 -0.000007 -0.000012 -0.141035 0.251101 29.321600 40.985400 -0.000006 -0.000013 0.027392 3.228670 -72.714700 11.754300 -0.000000 0.000003 -0.000101 -0.001039 -16.617400 -2.192510 6.469440 -0.000001 174.034000 15.619500 -176.026000 -39.081100 -0.002282 -0.040193 -0.165503 0.317316 28.012700 -40.985400 0.000008 0.000006 1.999420 13.267600 -71.837100 -11.754300 -0.000006 -0.000006 -0.003876 -0.050145 -18.612800
0.000000 0.000000 0.000000 0.000000 0.000000 -0.000000 0.140123 90.694500 3.475760 88.821100 -6.100500 9.781160 15.735700 0.000005 -0.000001 88.172600 82.909500 -88.577500 8.984550 -0.406207 -0.000000 6.406490 -0.446069 -0.783916 16.377300 -0.000001 -0.000001 4.193910 -3.651920 2.071050 6.456720 -0.000001 -0.000000 -10.903600 -0.795390 -4.288420 12.994200 -0.242716 4.980390 -91.932100 7.011800 -74.552300 5.348090 -0.000007 -0.000001 -60.291800 43.118700 -16.260500 24.328600 0.000019 0.000005 8.407700 21.406200 -22.046200 22.291600 -0.000001 0.000005 10.477100 5.268420 0.940704 12.994500 -0.242716 -4.980390 88.263900 11.507400 -81.361200 -5.348130 -0.000001 -0.000004 -61.368900 28.564300 -11.708100 -24.328900 0.000322 -0.000009 0.530407 1.721270 -17.161400 -22.291500 -0.000108 -0.000004 11.863900 5.369590 -1.973840 -2.192480 -6.469440 -0.000000 -174.477000 -11.699200 3.414660 39.081100 -0.000007 -0.000012 -0.142333 0.252781 29.382700 40.985400 -0.000006 -0.000013 0.008859 3.278100 -72.706500 11.754300 -0.000000 0.000003 -0.000103 -0.001054 -16.618000 -2.192510 6.469440 -0.000001 174.058000 15.714700 -175.945000 -39.081100 -0.002282 -0.040193 -0.166193 0.318482 28.022500 -40.985400 0.000008 0.000006 2.023790 13.268700 -71.832700 -11.754300 -0.000006 -0.000006 -0.003931 -0.050716 -18.636000
0.000000 0.000000 0.000000 0.000000 0.000000 -0.000000 0.122339 90.697800 3.428200 88.804900 -6.047810 9.854890 15.735700 0.000005 -0.000001 88.364800 82.883900 -88.810400 8.984550 -0.406207 -0.000000 6.459070 -0.399836 -0.867651 16.377300 -0.000001 -0.000001 4.299350 -3.549710 1.995800 6.456720 -0.000001 -0.000000 -10.784300 -0.737723 -4.448750 12.994200 -0.242716 4.980390 -91.913300 6.895280 -74.450300 5.348090 -0.000007 -0.000001 -60.181600 42.636900 -16.202600 24.328600 0.000019 0.000005 8.395710 21.584800 -21.860300 22.291600 -0.000001 0.000005 10.511600 5.262030 1.112830 12.994500 -0.242716 -4.980390 88.188000 11.680200 -81.118400 -5.348130 -0.000001 -0.000004 -59.949400 25.937000 -12.350300 -24.328900 0.000322 -0.000009 0.512747 1.670470 -17.099300 -22.291500 -0.000108 -0.000004 11.115200 5.370230 -1.994010 -2.192480 -6.469440 -0.000000 -174.451000 -11.635500 3.431100 39.081100 -0.000007 -0.000012 -0.140959 0.250033 29.412900 40.985400 -0.000006 -0.000013 0.000944 3.277320 -72.680900 11.754300 -0.000000 0.000003 -0.000099 -0.001018 -16.616600 -2.192510 6.469440 -0.000001 174.079000 15.762100 -175.899000 -39.081100 -0.002282 -0.040193 -0.161864 0.310092 28.042100 -40.985400 0.000008 0.000006 2.124030 13.233900 -71.841800 -11.754300 -0.000006 -0.000006 -0.003941 -0.050826 -18.640500
0.000000 0.000000 0.000000 0.000000 0.000000 -0.000000 0.131717 90.698200 3.362770 88.810000 -6.117400 9.906650 15.735700 0.000005 -0.000001 88.587800 82.861700 -89.082900 8.984550 -0.406207 -0.000000 6.504970 -0.345320 -0.969336 16.377300 -0.000001 -0.000001 4.414880 -3.410420 1.953970 6.456720 -0.000001 -0.000000 -10.609800 -0.570029 -4.631820 12.994200 -0.242716 4.980390 -91.886100 6.752310 -74.354000 5.348090 -0.000007 -0.000001 -60.169100 42.123400 -16.048100 24.328600 0.000019 0.000005 8.311390 21.609500 -21.636900 22.291600 -0.000001 0.000005 10.580400 5.261250 1.133560 12.994500 -0.242716 -4.980390 88.135700 11.815400 -80.967300 -5.348130 -0.000001 -0.000004 -58.111100 22.878800 -13.293700 -24.328900 0.000322 -0.000009 0.474234 1.526830 -17.293100 -22.291500 -0.000108 -0.000004 10.818000 5.365440 -1.846010 -2.192480 -6.469440 -0.000000 -174.448000 -11.689200 3.437320 39.081100 -0.000007 -0.000012 -0.139816 0.247695 29.443500 40.985400 -0.000006 -0.000013 0.010824 3.272090 -72.662300 11.754300 -0.000000 0.000003 -0.000087 -0.000914 -16.612700 -2.192510 6.469440 -0.000001 174.069000 15.697800 -175.920000 -39.081100 -0.002282 -0.040193 -0.167193 0.319761 28.067000 -40.985400 0.000008 0.000006 1.999470 13.273700 -71.768800 -11.754300 -0.000006 -0.000006 -0.003986 -0.051294 -18.659600
0.000000 0.000000 0.000000 0.000000 0.000000 -0.000000 0.161681 90.706200 3.296530 88.787900 -6.226690 9.929580 15.735700 0.000005 -0.000001 88.818100 82.879300 -89.344600 8.984550 -0.406207 -0.000000 6.471310 -0.286913 -1.035590 16.377300 -0.000001 -0.000001 4.624230 -3.234310 1.887810 6.456720 -0.000001 -0.000000 -10.328600 -0.402627 -4.845170 12.994200 -0.242716 4.980390 -91.863300 6.645780 -74.299700 5.348090 -0.000007 -0.000001 -60.087700 41.868700 -15.783100 24.328600 0.000019 0.000005 8.196850 21.502700 -21.453800 22.291600 -0.000001 0.000005 10.542800 5.260970 1.141000 12.994500 -0.242716 -4.980390 88.089800 11.831000 -80.760400 -5.348130 -0.000001 -0.000004 -55.887900 19.752500 -14.611700 -24.328900 0.000322 -0.000009 0.388026 1.239090 -17.434300 -22.291500 -0.000108 -0.000004 11.030700 5.362130 -1.745260 -2.192480 -6.469440 -0.000000 -174.455000 -11.708900 3.416140 39.081100 -0.000007 -0.000012 -0.138815 0.245775 29.458200 40.985400 -0.000006 -0.000013 0.003651 3.162350 -72.630200 11.754300 -0.000000 0.000003 -0.000098 -0.001015 -16.616500 -2.192510 6.469440 -0.000001 174.091000 15.610900 -175.956000 -39.081100 -0.002282 -0.040193 -0.169107 0.323547 28.052700 -40.985400 0.000008 0.000006 1.959520 13.314600 -71.693400 -11.754300 -0.000006 -0.000006 -0.003954 -0.050956 -18.645800
